name C:\Users\r0593348\3dpredictsim\Results\MidTarsalJoint\Fal_s1_bCst_PF_Natali2010_ls150_MT_k30_MTP_T5_ig24_PFx2.mot
datacolumns 128
datarows 4
range 1.17973759 1.21512972
endheader
time	pelvis_tilt	pelvis_list	pelvis_rotation	pelvis_tx	pelvis_ty	pelvis_tz	hip_flexion_l	hip_adduction_l	hip_rotation_l	hip_flexion_r	hip_adduction_r	hip_rotation_r	knee_angle_l	knee_angle_r	ankle_angle_l	ankle_angle_r	subtalar_angle_l	subtalar_angle_r	mtj_angle_l	mtj_angle_r	mtp_angle_l	mtp_angle_r	lumbar_extension	lumbar_bending	lumbar_rotation	arm_flex_l	arm_add_l	arm_rot_l	arm_flex_r	arm_add_r	arm_rot_r	elbow_flex_l	elbow_flex_r	pro_sup_l	pro_sup_r	glut_med1_l/activation	glut_med2_l/activation	glut_med3_l/activation	glut_min1_l/activation	glut_min2_l/activation	glut_min3_l/activation	semimem_l/activation	semiten_l/activation	bifemlh_l/activation	bifemsh_l/activation	sar_l/activation	add_long_l/activation	add_brev_l/activation	add_mag1_l/activation	add_mag2_l/activation	add_mag3_l/activation	tfl_l/activation	pect_l/activation	grac_l/activation	glut_max1_l/activation	glut_max2_l/activation	glut_max3_l/activation	iliacus_l/activation	psoas_l/activation	quad_fem_l/activation	gem_l/activation	peri_l/activation	rect_fem_l/activation	vas_med_l/activation	vas_int_l/activation	vas_lat_l/activation	med_gas_l/activation	lat_gas_l/activation	soleus_l/activation	tib_post_l/activation	flex_dig_l/activation	flex_hal_l/activation	tib_ant_l/activation	per_brev_l/activation	per_long_l/activation	per_tert_l/activation	ext_dig_l/activation	ext_hal_l/activation	ercspn_l/activation	intobl_l/activation	extobl_l/activation	glut_med1_r/activation	glut_med2_r/activation	glut_med3_r/activation	glut_min1_r/activation	glut_min2_r/activation	glut_min3_r/activation	semimem_r/activation	semiten_r/activation	bifemlh_r/activation	bifemsh_r/activation	sar_r/activation	add_long_r/activation	add_brev_r/activation	add_mag1_r/activation	add_mag2_r/activation	add_mag3_r/activation	tfl_r/activation	pect_r/activation	grac_r/activation	glut_max1_r/activation	glut_max2_r/activation	glut_max3_r/activation	iliacus_r/activation	psoas_r/activation	quad_fem_r/activation	gem_r/activation	peri_r/activation	rect_fem_r/activation	vas_med_r/activation	vas_int_r/activation	vas_lat_r/activation	med_gas_r/activation	lat_gas_r/activation	soleus_r/activation	tib_post_r/activation	flex_dig_r/activation	flex_hal_r/activation	tib_ant_r/activation	per_brev_r/activation	per_long_r/activation	per_tert_r/activation	ext_dig_r/activation	ext_hal_r/activation	ercspn_r/activation	intobl_r/activation	extobl_r/activation	
          1.17973759	         -2.92874290	         -2.23145260	          5.91890054	          1.47467199	          0.91843839	         -0.00131864	        -16.17470992	         -1.58769928	          7.10700178	         29.16232248	          3.31716633	         -1.89438672	         -9.94179609	         -8.80730435	         -2.95981480	          6.62391755	         12.95870318	         -6.06605387	          8.25226319	         -0.45945638	         -1.31985497	         -0.84195888	         -1.68254111	          0.30056216	         -2.68690475	          4.95849811	        -13.45073753	         14.95527352	         -7.46421010	        -13.50495984	          4.67407789	         38.17873798	         18.28423293	         86.51662706	         86.51662706	          0.25193053	          0.10255098	          0.06396255	          0.28617308	          0.19594812	          0.11706055	          0.05006251	          0.05000431	          0.05000231	          0.05008144	          0.12259692	          0.05441051	          0.05004227	          0.05001226	          0.05002909	          0.05000762	          0.32582319	          0.07064075	          0.05006831	          0.05004030	          0.05001731	          0.05000842	          0.45284957	          0.66455145	          0.05000173	          0.05000871	          0.05002011	          0.31018486	          0.05000253	          0.05000258	          0.05000246	          0.28530830	          0.38968121	          0.37051379	          0.24707928	          0.20489538	          0.29003005	          0.05000069	          0.10874946	          0.21134099	          0.05000537	          0.05000119	          0.05000374	          0.05000024	          0.05000109	          0.05002902	          0.05983113	          0.05983101	          0.05000399	          0.05983197	          0.05983172	          0.05494285	          0.23022399	          0.09991350	          0.15110091	          0.10102407	          0.05000305	          0.16342870	          0.23717856	          0.23360455	          0.21861634	          0.12352293	          0.05000215	          0.05014201	          0.15730911	          0.05013643	          0.09607147	          0.16050925	          0.05000682	          0.05000273	          0.14700550	          0.28125942	          0.11362550	          0.05000246	          0.07161211	          0.07161029	          0.07159904	          0.06698468	          0.06756832	          0.06314027	          0.05000077	          0.05001006	          0.05000518	          0.44087616	          0.24259216	          0.17690090	          0.10536686	          0.47124124	          0.21664327	          0.05468805	          0.11567426	          0.10442104	
          1.19153497	         -2.93003148	         -2.31645402	          6.23392335	          1.49255577	          0.91745072	         -0.00117237	        -16.08872652	         -1.90165402	          6.94066182	         28.54882091	          3.70884691	         -1.62231325	        -11.79535025	         -9.39172914	         -3.47357761	          5.96437544	         13.87221769	         -6.34276647	          7.23318024	         -0.53861476	         -0.46965295	         -0.81896915	         -1.45618378	          0.49078765	         -2.76496223	          4.65913779	        -13.45623603	         15.30594751	         -8.41340271	        -13.49273002	          4.64574714	         39.46247409	         17.80748389	         86.51662706	         86.51662706	          0.21053574	          0.08570120	          0.05345504	          0.23915354	          0.16375275	          0.09782732	          0.05013693	          0.05002894	          0.05005899	          0.05000400	          0.10245786	          0.13298988	          0.05974319	          0.05987500	          0.05984029	          0.05988002	          0.27228901	          0.05914134	          0.05019454	          0.05026256	          0.05023510	          0.05231981	          0.37844194	          0.62100166	          0.05962257	          0.05967826	          0.05132990	          0.31372464	          0.11527572	          0.12442636	          0.07395848	          0.23842817	          0.32565206	          0.32765778	          0.21536289	          0.17125359	          0.24241542	          0.05000102	          0.09089383	          0.23188745	          0.05000324	          0.05000110	          0.05000478	          0.05258734	          0.07159565	          0.07159540	          0.05000042	          0.05000114	          0.09285319	          0.05000127	          0.05000145	          0.05000178	          0.19239720	          0.08349712	          0.12627346	          0.08442571	          0.05986259	          0.13657979	          0.32586843	          0.33225413	          0.21576698	          0.12072441	          0.05000607	          0.07171600	          0.15445065	          0.05029799	          0.11983525	          0.16015724	          0.05000593	          0.05994962	          0.52252947	          0.23504572	          0.09495746	          0.05983247	          0.05985025	          0.05984934	          0.05984086	          0.06963518	          0.07159462	          0.06269674	          0.05982830	          0.05028146	          0.05975370	          0.46050258	          0.24602045	          0.22009240	          0.08805535	          0.39381136	          0.18104672	          0.05000020	          0.09666740	          0.08726324	
          1.20333235	         -2.92707120	         -2.40420381	          6.51339444	          1.51078750	          0.91647066	         -0.00106117	        -15.96593399	         -2.21366314	          6.76935709	         27.83054925	          3.98704967	         -1.31968636	        -13.69123083	        -10.09339351	         -4.08922385	          5.34294638	         14.71332043	         -6.62805407	          5.91234528	         -0.70692383	          0.76457373	         -0.68817390	         -1.20505295	          0.69306304	         -2.82684007	          4.27223563	        -13.45546003	         15.57538847	         -9.38589684	        -13.49090983	          4.69062573	         40.71279069	         17.36757595	         86.51662706	         86.51662706	          0.30126750	          0.07162061	          0.05006916	          0.26661595	          0.13685180	          0.08175565	          0.05005905	          0.05000358	          0.05000301	          0.05000582	          0.08567995	          0.11113926	          0.05001095	          0.05004002	          0.05003612	          0.05004434	          0.31377112	          0.05010787	          0.05003703	          0.05016072	          0.05008407	          0.05002324	          0.33265939	          0.59772249	          0.05001176	          0.05005103	          0.05002220	          0.29085907	          0.09633646	          0.10398355	          0.06180773	          0.19925099	          0.27214299	          0.27381888	          0.17997878	          0.14312072	          0.20258872	          0.05000049	          0.16328579	          0.23639394	          0.05000375	          0.05000212	          0.05000277	          0.05000060	          0.05983150	          0.05983143	          0.23311986	          0.22630167	          0.25322762	          0.35156055	          0.22391348	          0.19620406	          0.16097223	          0.08708313	          0.10838476	          0.08574048	          0.05002942	          0.11413867	          0.27232503	          0.27766178	          0.18032034	          0.14249465	          0.05000567	          0.05996567	          0.12917241	          0.05000408	          0.14497572	          0.15368939	          0.05430921	          0.05010127	          0.43667079	          0.19642604	          0.18014163	          0.05000168	          0.05001710	          0.05001639	          0.05000927	          0.05819345	          0.05983119	          0.05239491	          0.05000115	          0.05000987	          0.05000783	          0.52718144	          0.31335636	          0.18392884	          0.35614354	          0.49201316	          0.15131536	          0.05217739	          0.12270817	          0.07292477	
          1.21512972	         -2.92251176	         -2.49011378	          6.75161379	          1.52913777	          0.91558416	         -0.00092418	        -15.76240126	         -2.51779483	          6.61257533	         27.08901261	          4.23344125	         -1.01963276	        -15.67056062	        -10.76034789	         -4.82806189	          4.75367418	         15.48414977	         -6.89528649	          4.29382312	         -0.64170213	          2.41959885	         -0.63331086	         -0.95474294	          0.90074894	         -2.87809829	          3.83788113	        -13.45822252	         15.79250977	        -10.32971450	        -13.48964954	          4.79918980	         41.89660990	         16.94508347	         86.51662706	         86.51662706	          0.25180493	          0.05985313	          0.05008158	          0.22282672	          0.11436738	          0.06832363	          0.05009278	          0.05000507	          0.05000508	          0.05000396	          0.07161878	          0.12001816	          0.05005124	          0.05007313	          0.05010279	          0.05002325	          0.28477816	          0.05998014	          0.05012469	          0.05016617	          0.05010221	          0.05006228	          0.27800019	          0.55664068	          0.05009217	          0.05018365	          0.05001304	          0.24307045	          0.08055009	          0.08695880	          0.14385080	          0.16651117	          0.22742610	          0.22882642	          0.15040655	          0.11960713	          0.16930283	          0.05922151	          0.13647159	          0.22584678	          0.05000945	          0.10822822	          0.05002515	          0.06059276	          0.05000061	          0.05000097	          0.33713568	          0.33815185	          0.36011644	          0.29379652	          0.18718081	          0.19685638	          0.13452604	          0.07286605	          0.09063955	          0.07165360	          0.05005547	          0.09538447	          0.22757856	          0.23204004	          0.15069686	          0.16815858	          0.05000828	          0.05011851	          0.10795036	          0.22122792	          0.20219604	          0.17062211	          0.05000103	          0.05000122	          0.36492034	          0.16415183	          0.15054452	          0.05000165	          0.07243699	          0.07728483	          0.06048845	          0.05000075	          0.05000232	          0.05000034	          0.05000722	          0.05000478	          0.05000571	          0.59880116	          0.33576536	          0.19649770	          0.38111508	          0.52612605	          0.27548565	          0.06696834	          0.10254560	          0.06094231	
